ISO-10303-21;
HEADER;
FILE_DESCRIPTION (( 'STEP AP214' ),
    '1' );
FILE_NAME ('Gyperbolic_mirror.STEP',
    '2026-10-06T20:54:47',
    ( '' ),
    ( '' ),
    'SwSTEP 2.0',
    'SolidWorks 2024',
    '' );
FILE_SCHEMA (( 'AUTOMOTIVE_DESIGN' ));
ENDSEC;

DATA;
#1 = FACE_OUTER_BOUND ( 'NONE', #28, .T. ) ;
#2 = ORIENTED_EDGE ( 'NONE', *, *, #45, .F. ) ;
#3 = CARTESIAN_POINT ( 'NONE',  ( 24.33624991464068898, 26.78573120243097350, -2.982025122015985470E-15 ) ) ;
#4 = EDGE_CURVE ( 'NONE', #155, #65, #128, .T. ) ;
#5 = VERTEX_POINT ( 'NONE', #220 ) ;
#6 = CARTESIAN_POINT ( 'NONE',  ( 18.26951501538705358, 22.87907953974722730, -2.239064374451334759E-15 ) ) ;
#7 = CARTESIAN_POINT ( 'NONE',  ( 24.70065513241529587, 27.03177441310746687, 49.40131026483055621 ) ) ;
#8 = CARTESIAN_POINT ( 'NONE',  ( -23.93688493731885458, 26.51727093175607308, 5.864539969903713652E-15 ) ) ;
#9 = APPLICATION_CONTEXT ( 'automotive_design' ) ;
#10 =( BOUNDED_SURFACE ( )  B_SPLINE_SURFACE ( 3, 3, ( 
 ( #152, #78, #169, #297 ),
 ( #199, #38, #123, #17 ),
 ( #19, #103, #41, #125 ),
 ( #80, #269, #246, #217 ),
 ( #16, #194, #149, #219 ),
 ( #195, #81, #170, #299 ),
 ( #250, #40, #126, #106 ),
 ( #301, #197, #84, #171 ),
 ( #274, #153, #87, #21 ),
 ( #201, #226, #209, #108 ),
 ( #179, #173, #70, #64 ),
 ( #26, #302, #86, #176 ),
 ( #160, #63, #227, #50 ),
 ( #260, #255, #42, #24 ) ),
 .UNSPECIFIED., .F., .F., .F. ) 
 B_SPLINE_SURFACE_WITH_KNOTS ( ( 4, 1, 1, 1, 1, 1, 1, 1, 1, 1, 1, 4 ),
 ( 4, 4 ),
 ( 0.08320315828444178885, 0.08971561068935918204, 0.09622806309427656135, 0.1027405154991939545, 0.1092529679041113477, 0.1222778727139461202, 0.1353027775237808927, 0.1874023967631200105, 0.2916016352417982183, 0.3958008737204764538, 0.4739506856466572104, 0.5000004952663242852 ),
 ( 0.000000000000000000, 1.000000000000000000 ),
 .UNSPECIFIED. ) 
 GEOMETRIC_REPRESENTATION_ITEM ( )  RATIONAL_B_SPLINE_SURFACE ( (
 ( 1.000000000000000000, 0.3333333333333334259, 0.3333333333333334259, 1.000000000000000000),
 ( 1.000000000000000000, 0.3333333333333334259, 0.3333333333333334259, 1.000000000000000000),
 ( 1.000000000000000000, 0.3333333333333334259, 0.3333333333333334259, 1.000000000000000000),
 ( 1.000000000000000000, 0.3333333333333334259, 0.3333333333333334259, 1.000000000000000000),
 ( 1.000000000000000000, 0.3333333333333334259, 0.3333333333333334259, 1.000000000000000000),
 ( 1.000000000000000000, 0.3333333333333334259, 0.3333333333333334259, 1.000000000000000000),
 ( 1.000000000000000000, 0.3333333333333334259, 0.3333333333333334259, 1.000000000000000000),
 ( 1.000000000000000000, 0.3333333333333334259, 0.3333333333333334259, 1.000000000000000000),
 ( 1.000000000000000000, 0.3333333333333334259, 0.3333333333333334259, 1.000000000000000000),
 ( 1.000000000000000000, 0.3333333333333334259, 0.3333333333333334259, 1.000000000000000000),
 ( 1.000000000000000000, 0.3333333333333334259, 0.3333333333333334259, 1.000000000000000000),
 ( 1.000000000000000000, 0.3333333333333334259, 0.3333333333333334259, 1.000000000000000000),
 ( 1.000000000000000000, 0.3333333333333334259, 0.3333333333333334259, 1.000000000000000000),
 ( 1.000000000000000000, 0.3333333333333334259, 0.3333333333333334259, 1.000000000000000000) ) ) 
 REPRESENTATION_ITEM ( '' )  SURFACE ( )  );
#11 = CARTESIAN_POINT ( 'NONE',  ( -2.868153118922350142, 16.77044670973628726, 7.041889732050594202E-16 ) ) ;
#12 = B_SPLINE_CURVE_WITH_KNOTS ( 'NONE', 3,
 ( #174, #218, #107, #296, #150, #298, #127, #82, #39, #198, #249, #104, #196, #300 ),
 .UNSPECIFIED., .F., .F.,
 ( 4, 1, 1, 1, 1, 1, 1, 1, 1, 1, 1, 4 ),
 ( 0.08320315828444178885, 0.08971561068935918204, 0.09622806309427656135, 0.1027405154991939545, 0.1092529679041113477, 0.1222778727139461202, 0.1353027775237808927, 0.1874023967631200105, 0.2916016352417982183, 0.3958008737204764538, 0.4739506856466572104, 0.5000004952663242852 ),
 .UNSPECIFIED. ) ;
#13 = AXIS2_PLACEMENT_3D ( 'NONE', #183, #286, #72 ) ;
#14 = CARTESIAN_POINT ( 'NONE',  ( 3.306546357697853339E-15, -200040.8207819598902, 26.99999999999999645 ) ) ;
#15 = CARTESIAN_POINT ( 'NONE',  ( 0.000000000000000000, 27.23508511468253346, 0.000000000000000000 ) ) ;
#16 = CARTESIAN_POINT ( 'NONE',  ( -23.93688493731885458, 26.51727093175607308, 1.694065894508600678E-18 ) ) ;
#17 = CARTESIAN_POINT ( 'NONE',  ( 24.89638565594131592, 27.16456268017720888, -3.050621966283169333E-15 ) ) ;
#18 = CARTESIAN_POINT ( 'NONE',  ( 0.000000000000000000, -200040.8207819598902, -26.99999999999999645 ) ) ;
#19 = CARTESIAN_POINT ( 'NONE',  ( -24.70065513241528876, 27.03177441310746687, 1.694065894508600678E-18 ) ) ;
#20 = CARTESIAN_POINT ( 'NONE',  ( -24.99999999999993960, 27.23508511468253346, 1.694065894508600678E-18 ) ) ;
#21 = CARTESIAN_POINT ( 'NONE',  ( 18.26951501538705358, 22.87907953974722730, -2.239064374451334759E-15 ) ) ;
#22 = DIRECTION ( 'NONE',  ( -0.000000000000000000, -1.000000000000000000, -0.000000000000000000 ) ) ;
#23 =( LENGTH_UNIT ( ) NAMED_UNIT ( * ) SI_UNIT ( .MILLI., .METRE. ) );
#24 = CARTESIAN_POINT ( 'NONE',  ( 5.094069697314518308E-12, 16.68319047246279041, -1.694065895132444439E-18 ) ) ;
#25 = EDGE_LOOP ( 'NONE', ( #210, #69 ) ) ;
#26 = CARTESIAN_POINT ( 'NONE',  ( -2.868153118922350142, 16.77044670973628726, 1.694065894508600678E-18 ) ) ;
#27 = AXIS2_PLACEMENT_3D ( 'NONE', #15, #223, #172 ) ;
#28 = EDGE_LOOP ( 'NONE', ( #263, #259 ) ) ;
#29 = CARTESIAN_POINT ( 'NONE',  ( 24.99999999999993960, 27.23508511468253346, -3.063311063762884149E-15 ) ) ;
#30 = ORIENTED_EDGE ( 'NONE', *, *, #166, .F. ) ;
#31 = CARTESIAN_POINT ( 'NONE',  ( -23.42801362484811634, 26.17729418276826792, 5.739902445104673559E-15 ) ) ;
#32 = CARTESIAN_POINT ( 'NONE',  ( -0.5736179235705377577, 16.68319047246562548, 1.421899367013506232E-16 ) ) ;
#33 = CARTESIAN_POINT ( 'NONE',  ( -13.25022997480533427, 20.05730275121825912, 26.50045994961067919 ) ) ;
#34 = CARTESIAN_POINT ( 'NONE',  ( -24.99999999999992539, 27.23508511466892656, 49.99999999999987210 ) ) ;
#35 = FACE_OUTER_BOUND ( 'NONE', #208, .T. ) ;
#36 = DIRECTION ( 'NONE',  ( -0.000000000000000000, -1.000000000000000000, -0.000000000000000000 ) ) ;
#37 = CARTESIAN_POINT ( 'NONE',  ( 0.000000000000000000, 0.000000000000000000, 0.000000000000000000 ) ) ;
#38 = CARTESIAN_POINT ( 'NONE',  ( -24.89638565594131592, 27.16456268017720532, -49.79277131188262473 ) ) ;
#39 = CARTESIAN_POINT ( 'NONE',  ( -18.26951501538705358, 22.87907953974722730, 1.694065894508600678E-18 ) ) ;
#40 = CARTESIAN_POINT ( 'NONE',  ( -22.86909176121336884, 25.80852029392269742, -45.73818352242673058 ) ) ;
#41 = CARTESIAN_POINT ( 'NONE',  ( 24.70065513241527810, 27.03177441310746687, -49.40131026483055621 ) ) ;
#42 = CARTESIAN_POINT ( 'NONE',  ( 5.094066309182727675E-12, 16.68319047246279041, -1.018814108869492951E-11 ) ) ;
#43 = VERTEX_POINT ( 'NONE', #272 ) ;
#44 = CYLINDRICAL_SURFACE ( 'NONE', #278, 26.99999999999999645 ) ;
#45 = EDGE_CURVE ( 'NONE', #254, #133, #60, .T. ) ;
#46 = DIRECTION ( 'NONE',  ( 0.000000000000000000, 0.000000000000000000, -1.000000000000000000 ) ) ;
#47 = FILL_AREA_STYLE_COLOUR ( '', #110 ) ;
#48 = DIRECTION ( 'NONE',  ( 0.000000000000000000, -1.000000000000000000, -0.000000000000000000 ) ) ;
#49 = ORIENTED_EDGE ( 'NONE', *, *, #142, .F. ) ;
#50 = CARTESIAN_POINT ( 'NONE',  ( 0.5736179235705377577, 16.68319047246562548, -7.194200129792961195E-17 ) ) ;
#51 = CARTESIAN_POINT ( 'NONE',  ( -22.86909176121336884, 25.80852029392270097, 5.603006070849919747E-15 ) ) ;
#52 = AXIS2_PLACEMENT_3D ( 'NONE', #252, #206, #46 ) ;
#53 = ORIENTED_EDGE ( 'NONE', *, *, #182, .T. ) ;
#54 = CARTESIAN_POINT ( 'NONE',  ( 21.39957068512087801, 24.84882170940121071, 42.79914137024173471 ) ) ;
#55 = CARTESIAN_POINT ( 'NONE',  ( 0.5736179235705378687, 16.68319047246562548, 1.147235847141075293 ) ) ;
#56 = CARTESIAN_POINT ( 'NONE',  ( 13.25022997480534137, 20.05730275121825912, -1.624379238555676263E-15 ) ) ;
#57 = EDGE_CURVE ( 'NONE', #115, #133, #273, .T. ) ;
#58 = CARTESIAN_POINT ( 'NONE',  ( 0.000000000000000000, 27.23508511468253346, 0.000000000000000000 ) ) ;
#59 = PRESENTATION_LAYER_ASSIGNMENT (  '', '', ( #141 ) ) ;
#60 = CIRCLE ( 'NONE', #132, 27.00000000000000000 ) ;
#61 = FACE_OUTER_BOUND ( 'NONE', #161, .T. ) ;
#62 = MECHANICAL_DESIGN_GEOMETRIC_PRESENTATION_REPRESENTATION (  '', ( #141 ), #175 ) ;
#63 = CARTESIAN_POINT ( 'NONE',  ( -0.5736179235705377577, 16.68319047246562548, -1.147235847141075293 ) ) ;
#64 = CARTESIAN_POINT ( 'NONE',  ( 7.402070620196836259, 17.64333063297809545, -9.081862751031805925E-16 ) ) ;
#65 = VERTEX_POINT ( 'NONE', #20 ) ;
#66 = CARTESIAN_POINT ( 'NONE',  ( 2.868153118919099409, 16.77044670973566554, -3.529415195493858822E-16 ) ) ;
#67 = DIRECTION ( 'NONE',  ( 0.000000000000000000, 0.000000000000000000, -1.000000000000000000 ) ) ;
#68 =( BOUNDED_SURFACE ( )  B_SPLINE_SURFACE ( 3, 3, ( 
 ( #71, #264, #34, #290 ),
 ( #163, #190, #74, #96 ),
 ( #143, #7, #121, #241 ),
 ( #3, #120, #118, #267 ),
 ( #95, #186, #292, #8 ),
 ( #293, #212, #214, #31 ),
 ( #119, #165, #262, #51 ),
 ( #265, #54, #237, #144 ),
 ( #6, #211, #162, #239 ),
 ( #56, #98, #33, #75 ),
 ( #140, #189, #168, #213 ),
 ( #268, #185, #146, #11 ),
 ( #167, #55, #242, #32 ),
 ( #287, #99, #145, #93 ) ),
 .UNSPECIFIED., .F., .F., .T. ) 
 B_SPLINE_SURFACE_WITH_KNOTS ( ( 4, 1, 1, 1, 1, 1, 1, 1, 1, 1, 1, 4 ),
 ( 4, 4 ),
 ( 0.08320315828444178885, 0.08971561068935918204, 0.09622806309427656135, 0.1027405154991939545, 0.1092529679041113477, 0.1222778727139461202, 0.1353027775237808927, 0.1874023967631200105, 0.2916016352417982183, 0.3958008737204764538, 0.4739506856466572104, 0.5000004952663242852 ),
 ( 0.000000000000000000, 1.000000000000000000 ),
 .UNSPECIFIED. ) 
 GEOMETRIC_REPRESENTATION_ITEM ( )  RATIONAL_B_SPLINE_SURFACE ( (
 ( 1.000000000000000000, 0.3333333333333334259, 0.3333333333333334259, 1.000000000000000000),
 ( 1.000000000000000000, 0.3333333333333334259, 0.3333333333333334259, 1.000000000000000000),
 ( 1.000000000000000000, 0.3333333333333334259, 0.3333333333333334259, 1.000000000000000000),
 ( 1.000000000000000000, 0.3333333333333334259, 0.3333333333333334259, 1.000000000000000000),
 ( 1.000000000000000000, 0.3333333333333334259, 0.3333333333333334259, 1.000000000000000000),
 ( 1.000000000000000000, 0.3333333333333334259, 0.3333333333333334259, 1.000000000000000000),
 ( 1.000000000000000000, 0.3333333333333334259, 0.3333333333333334259, 1.000000000000000000),
 ( 1.000000000000000000, 0.3333333333333334259, 0.3333333333333334259, 1.000000000000000000),
 ( 1.000000000000000000, 0.3333333333333334259, 0.3333333333333334259, 1.000000000000000000),
 ( 1.000000000000000000, 0.3333333333333334259, 0.3333333333333334259, 1.000000000000000000),
 ( 1.000000000000000000, 0.3333333333333334259, 0.3333333333333334259, 1.000000000000000000),
 ( 1.000000000000000000, 0.3333333333333334259, 0.3333333333333334259, 1.000000000000000000),
 ( 1.000000000000000000, 0.3333333333333334259, 0.3333333333333334259, 1.000000000000000000),
 ( 1.000000000000000000, 0.3333333333333334259, 0.3333333333333334259, 1.000000000000000000) ) ) 
 REPRESENTATION_ITEM ( '' )  SURFACE ( )  );
#69 = ORIENTED_EDGE ( 'NONE', *, *, #182, .F. ) ;
#70 = CARTESIAN_POINT ( 'NONE',  ( 7.402070620196835371, 17.64333063297809545, -14.80414124039367074 ) ) ;
#71 = CARTESIAN_POINT ( 'NONE',  ( 24.99999999999993960, 27.23508511466892656, -3.063311063762884149E-15 ) ) ;
#72 = DIRECTION ( 'NONE',  ( 0.000000000000000000, 0.000000000000000000, -1.000000000000000000 ) ) ;
#73 = AXIS2_PLACEMENT_3D ( 'NONE', #154, #129, #276 ) ;
#74 = CARTESIAN_POINT ( 'NONE',  ( -24.89638565594130526, 27.16456268017720532, 49.79277131188263184 ) ) ;
#75 = CARTESIAN_POINT ( 'NONE',  ( -13.25022997480534137, 20.05730275121825912, 3.247064411216843926E-15 ) ) ;
#76 = DIRECTION ( 'NONE',  ( -0.000000000000000000, -1.000000000000000000, -0.000000000000000000 ) ) ;
#77 = PRODUCT_DEFINITION_CONTEXT ( 'detailed design', #224, 'design' ) ;
#78 = CARTESIAN_POINT ( 'NONE',  ( -24.99999999999994316, 27.23508511466892656, -49.99999999999986500 ) ) ;
#79 = UNCERTAINTY_MEASURE_WITH_UNIT (LENGTH_MEASURE( 1.000000000000000082E-05 ), #23, 'distance_accuracy_value', 'NONE');
#80 = CARTESIAN_POINT ( 'NONE',  ( -24.33624991464068898, 26.78573120243097350, 1.694065894508600678E-18 ) ) ;
#81 = CARTESIAN_POINT ( 'NONE',  ( -23.42801362484811278, 26.17729418276826792, -46.85602724969622557 ) ) ;
#82 = CARTESIAN_POINT ( 'NONE',  ( -21.39957068512087091, 24.84882170940121071, 1.694065894508600678E-18 ) ) ;
#83 = DIRECTION ( 'NONE',  ( 0.000000000000000000, 0.000000000000000000, 1.000000000000000000 ) ) ;
#84 = CARTESIAN_POINT ( 'NONE',  ( 21.39957068512086380, 24.84882170940121071, -42.79914137024173471 ) ) ;
#85 = CARTESIAN_POINT ( 'NONE',  ( 0.000000000000000000, 29.23508511469208315, -26.99999999999999645 ) ) ;
#86 = CARTESIAN_POINT ( 'NONE',  ( 2.868153118922349254, 16.77044670973629081, -5.736306237844699396 ) ) ;
#87 = CARTESIAN_POINT ( 'NONE',  ( 18.26951501538704647, 22.87907953974722730, -36.53903003077409295 ) ) ;
#88 = EDGE_CURVE ( 'NONE', #65, #155, #243, .T. ) ;
#89 = CARTESIAN_POINT ( 'NONE',  ( 22.86909176121336884, 25.80852029392270097, -2.802350068372214174E-15 ) ) ;
#90 = ORIENTED_EDGE ( 'NONE', *, *, #238, .F. ) ;
#91 = CARTESIAN_POINT ( 'NONE',  ( 23.42801362484811634, 26.17729418276826792, -2.870798255499591080E-15 ) ) ;
#92 = CARTESIAN_POINT ( 'NONE',  ( 0.000000000000000000, -200040.8207819598902, 0.000000000000000000 ) ) ;
#93 = CARTESIAN_POINT ( 'NONE',  ( -5.094069697314518308E-12, 16.68319047246279041, 1.694065895756295133E-18 ) ) ;
#94 = CLOSED_SHELL ( 'NONE', ( #148, #256, #248, #277, #188, #204 ) ) ;
#95 = CARTESIAN_POINT ( 'NONE',  ( 23.93688493731885458, 26.51727093175607308, -2.933117017899111126E-15 ) ) ;
#96 = CARTESIAN_POINT ( 'NONE',  ( -24.89638565594131592, 27.16456268017720888, 6.099549866671830065E-15 ) ) ;
#97 = EDGE_CURVE ( 'NONE', #65, #5, #12, .T. ) ;
#98 = CARTESIAN_POINT ( 'NONE',  ( 13.25022997480534492, 20.05730275121825912, 26.50045994961067564 ) ) ;
#99 = CARTESIAN_POINT ( 'NONE',  ( 5.094073085446308941E-12, 16.68319047246279041, 1.018813770056314049E-11 ) ) ;
#100 = ORIENTED_EDGE ( 'NONE', *, *, #88, .F. ) ;
#101 = DIRECTION ( 'NONE',  ( -0.000000000000000000, -1.000000000000000000, -0.000000000000000000 ) ) ;
#102 = APPLICATION_PROTOCOL_DEFINITION ( 'draft international standard', 'automotive_design', 1998, #224 ) ;
#103 = CARTESIAN_POINT ( 'NONE',  ( -24.70065513241528876, 27.03177441310746687, -49.40131026483055621 ) ) ;
#104 = CARTESIAN_POINT ( 'NONE',  ( -2.868153118922350142, 16.77044670973628726, 1.694065894508600678E-18 ) ) ;
#105 = SHAPE_DEFINITION_REPRESENTATION ( #240, #205 ) ;
#106 = CARTESIAN_POINT ( 'NONE',  ( 22.86909176121336884, 25.80852029392270097, -2.802350068372214174E-15 ) ) ;
#107 = CARTESIAN_POINT ( 'NONE',  ( -24.70065513241528876, 27.03177441310746687, 1.694065894508600678E-18 ) ) ;
#108 = CARTESIAN_POINT ( 'NONE',  ( 13.25022997480534137, 20.05730275121825912, -1.624379238555676263E-15 ) ) ;
#109 = AXIS2_PLACEMENT_3D ( 'NONE', #37, #83, #147 ) ;
#110 = COLOUR_RGB ( '',0.7921568627450980005, 0.8196078431372548767, 0.9333333333333333481 ) ;
#111 = CARTESIAN_POINT ( 'NONE',  ( 24.89638565594131592, 27.16456268017720888, -3.050621966283169333E-15 ) ) ;
#112 = ORIENTED_EDGE ( 'NONE', *, *, #97, .F. ) ;
#113 = FACE_OUTER_BOUND ( 'NONE', #232, .T. ) ;
#114 = FACE_OUTER_BOUND ( 'NONE', #261, .T. ) ;
#115 = VERTEX_POINT ( 'NONE', #85 ) ;
#116 = CARTESIAN_POINT ( 'NONE',  ( 21.39957068512087091, 24.84882170940121071, -2.622385640160589199E-15 ) ) ;
#117 = ORIENTED_EDGE ( 'NONE', *, *, #142, .T. ) ;
#118 = CARTESIAN_POINT ( 'NONE',  ( -24.33624991464068188, 26.78573120243097705, 48.67249982928137797 ) ) ;
#119 = CARTESIAN_POINT ( 'NONE',  ( 22.86909176121336884, 25.80852029392270097, -2.802350068372214174E-15 ) ) ;
#120 = CARTESIAN_POINT ( 'NONE',  ( 24.33624991464069964, 26.78573120243097705, 48.67249982928136376 ) ) ;
#121 = CARTESIAN_POINT ( 'NONE',  ( -24.70065513241527810, 27.03177441310746687, 49.40131026483057042 ) ) ;
#122 = AXIS2_PLACEMENT_3D ( 'NONE', #233, #282, #225 ) ;
#123 = CARTESIAN_POINT ( 'NONE',  ( 24.89638565594131236, 27.16456268017720532, -49.79277131188262473 ) ) ;
#124 = CARTESIAN_POINT ( 'NONE',  ( 0.000000000000000000, 27.23508511468253346, 0.000000000000000000 ) ) ;
#125 = CARTESIAN_POINT ( 'NONE',  ( 24.70065513241528876, 27.03177441310746687, -3.026651890370010909E-15 ) ) ;
#126 = CARTESIAN_POINT ( 'NONE',  ( 22.86909176121336174, 25.80852029392269742, -45.73818352242673058 ) ) ;
#127 = CARTESIAN_POINT ( 'NONE',  ( -22.86909176121336884, 25.80852029392270097, 1.694065894508600678E-18 ) ) ;
#128 = CIRCLE ( 'NONE', #27, 24.99999999999993960 ) ;
#129 = DIRECTION ( 'NONE',  ( -0.000000000000000000, -1.000000000000000000, -0.000000000000000000 ) ) ;
#130 = CARTESIAN_POINT ( 'NONE',  ( 0.000000000000000000, -200040.8207819598902, 0.000000000000000000 ) ) ;
#131 = CARTESIAN_POINT ( 'NONE',  ( -4.932484610098605257E-12, 16.68319047246279396, 0.000000000000000000 ) ) ;
#132 = AXIS2_PLACEMENT_3D ( 'NONE', #58, #247, #222 ) ;
#133 = VERTEX_POINT ( 'NONE', #275 ) ;
#134 = DIRECTION ( 'NONE',  ( 0.000000000000000000, 0.000000000000000000, -1.000000000000000000 ) ) ;
#135 = ORIENTED_EDGE ( 'NONE', *, *, #4, .T. ) ;
#136 = CARTESIAN_POINT ( 'NONE',  ( 23.93688493731885458, 26.51727093175607308, -2.933117017899111126E-15 ) ) ;
#137 = MANIFOLD_SOLID_BREP ( '\X2\041f043e043204350440043d04430442044c\X0\1', #94 ) ;
#138 = FILL_AREA_STYLE ('',( #47 ) ) ;
#139 = ORIENTED_EDGE ( 'NONE', *, *, #97, .T. ) ;
#140 = CARTESIAN_POINT ( 'NONE',  ( 7.402070620196836259, 17.64333063297809545, -9.081862751031805925E-16 ) ) ;
#141 = STYLED_ITEM ( 'NONE', ( #159 ), #137 ) ;
#142 = EDGE_CURVE ( 'NONE', #43, #254, #181, .T. ) ;
#143 = CARTESIAN_POINT ( 'NONE',  ( 24.70065513241528876, 27.03177441310746687, -3.026651890370010909E-15 ) ) ;
#144 = CARTESIAN_POINT ( 'NONE',  ( -21.39957068512087091, 24.84882170940121071, 5.243077214426669798E-15 ) ) ;
#145 = CARTESIAN_POINT ( 'NONE',  ( -5.094066309182726867E-12, 16.68319047246279041, 1.018814108869493112E-11 ) ) ;
#146 = CARTESIAN_POINT ( 'NONE',  ( -2.868153118922348810, 16.77044670973629081, 5.736306237844700284 ) ) ;
#147 = DIRECTION ( 'NONE',  ( 1.000000000000000000, 0.000000000000000000, 0.000000000000000000 ) ) ;
#148 = ADVANCED_FACE ( 'NONE', ( #61 ), #10, .F. ) ;
#149 = CARTESIAN_POINT ( 'NONE',  ( 23.93688493731884392, 26.51727093175607308, -47.87376987463768785 ) ) ;
#150 = CARTESIAN_POINT ( 'NONE',  ( -23.93688493731885458, 26.51727093175607308, 1.694065894508600678E-18 ) ) ;
#151 = PRODUCT_CONTEXT ( 'NONE', #9, 'mechanical' ) ;
#152 = CARTESIAN_POINT ( 'NONE',  ( -24.99999999999993960, 27.23508511466892656, 1.694065894508600678E-18 ) ) ;
#153 = CARTESIAN_POINT ( 'NONE',  ( -18.26951501538705358, 22.87907953974722730, -36.53903003077409295 ) ) ;
#154 = CARTESIAN_POINT ( 'NONE',  ( 0.000000000000000000, 27.23508511468253346, 0.000000000000000000 ) ) ;
#155 = VERTEX_POINT ( 'NONE', #279 ) ;
#156 = CARTESIAN_POINT ( 'NONE',  ( 1.851042662278989149E-10, 27.23508511467573712, 0.000000000000000000 ) ) ;
#157 = ORIENTED_EDGE ( 'NONE', *, *, #88, .T. ) ;
#158 = CARTESIAN_POINT ( 'NONE',  ( 0.5736179235639563556, 16.68319047246537679, -7.194200129712363030E-17 ) ) ;
#159 = PRESENTATION_STYLE_ASSIGNMENT (( #280 ) ) ;
#160 = CARTESIAN_POINT ( 'NONE',  ( -0.5736179235705377577, 16.68319047246562548, 1.694065894508600678E-18 ) ) ;
#161 = EDGE_LOOP ( 'NONE', ( #157, #229, #112 ) ) ;
#162 = CARTESIAN_POINT ( 'NONE',  ( -18.26951501538704292, 22.87907953974722730, 36.53903003077410716 ) ) ;
#163 = CARTESIAN_POINT ( 'NONE',  ( 24.89638565594131592, 27.16456268017720888, -3.050621966283169333E-15 ) ) ;
#164 = CIRCLE ( 'NONE', #13, 26.99999999999999645 ) ;
#165 = CARTESIAN_POINT ( 'NONE',  ( 22.86909176121337239, 25.80852029392269742, 45.73818352242673058 ) ) ;
#166 = EDGE_CURVE ( 'NONE', #133, #254, #234, .T. ) ;
#167 = CARTESIAN_POINT ( 'NONE',  ( 0.5736179235705377577, 16.68319047246562548, -7.194200129792961195E-17 ) ) ;
#168 = CARTESIAN_POINT ( 'NONE',  ( -7.402070620196832706, 17.64333063297809545, 14.80414124039367074 ) ) ;
#169 = CARTESIAN_POINT ( 'NONE',  ( 24.99999999999993250, 27.23508511466892656, -49.99999999999986500 ) ) ;
#170 = CARTESIAN_POINT ( 'NONE',  ( 23.42801362484810568, 26.17729418276826792, -46.85602724969622557 ) ) ;
#171 = CARTESIAN_POINT ( 'NONE',  ( 21.39957068512087091, 24.84882170940121071, -2.622385640160589199E-15 ) ) ;
#172 = DIRECTION ( 'NONE',  ( 0.000000000000000000, 0.000000000000000000, -1.000000000000000000 ) ) ;
#173 = CARTESIAN_POINT ( 'NONE',  ( -7.402070620196836259, 17.64333063297809545, -14.80414124039367074 ) ) ;
#174 = CARTESIAN_POINT ( 'NONE',  ( -24.99999999999993960, 27.23508511468253346, 1.694065894508600678E-18 ) ) ;
#175 =( GEOMETRIC_REPRESENTATION_CONTEXT ( 3 ) GLOBAL_UNCERTAINTY_ASSIGNED_CONTEXT ( ( #79 ) ) GLOBAL_UNIT_ASSIGNED_CONTEXT ( ( #23, #193, #216 ) ) REPRESENTATION_CONTEXT ( 'NONE', 'WORKASPACE' ) );
#176 = CARTESIAN_POINT ( 'NONE',  ( 2.868153118922350142, 16.77044670973628726, -3.529415195497840105E-16 ) ) ;
#177 = CARTESIAN_POINT ( 'NONE',  ( 13.25022997480534137, 20.05730275121825912, -1.624379238555676263E-15 ) ) ;
#178 = ORIENTED_EDGE ( 'NONE', *, *, #57, .T. ) ;
#179 = CARTESIAN_POINT ( 'NONE',  ( -7.402070620196836259, 17.64333063297809545, 1.694065894508600678E-18 ) ) ;
#180 = FACE_BOUND ( 'NONE', #202, .T. ) ;
#181 = LINE ( 'NONE', #14, #245 ) ;
#182 = EDGE_CURVE ( 'NONE', #43, #115, #192, .T. ) ;
#183 = CARTESIAN_POINT ( 'NONE',  ( 0.000000000000000000, 29.23508511469208315, 0.000000000000000000 ) ) ;
#184 = AXIS2_PLACEMENT_3D ( 'NONE', #124, #200, #251 ) ;
#185 = CARTESIAN_POINT ( 'NONE',  ( 2.868153118922351030, 16.77044670973629081, 5.736306237844699396 ) ) ;
#186 = CARTESIAN_POINT ( 'NONE',  ( 23.93688493731886169, 26.51727093175607308, 47.87376987463768785 ) ) ;
#187 =( GEOMETRIC_REPRESENTATION_CONTEXT ( 3 ) GLOBAL_UNCERTAINTY_ASSIGNED_CONTEXT ( ( #271 ) ) GLOBAL_UNIT_ASSIGNED_CONTEXT ( ( #270, #244, #191 ) ) REPRESENTATION_CONTEXT ( 'NONE', 'WORKASPACE' ) );
#188 = ADVANCED_FACE ( 'NONE', ( #283 ), #253, .T. ) ;
#189 = CARTESIAN_POINT ( 'NONE',  ( 7.402070620196838036, 17.64333063297809545, 14.80414124039366719 ) ) ;
#190 = CARTESIAN_POINT ( 'NONE',  ( 24.89638565594132302, 27.16456268017720532, 49.79277131188262473 ) ) ;
#191 =( NAMED_UNIT ( * ) SI_UNIT ( $, .STERADIAN. ) SOLID_ANGLE_UNIT ( ) );
#192 = CIRCLE ( 'NONE', #52, 26.99999999999999645 ) ;
#193 =( NAMED_UNIT ( * ) PLANE_ANGLE_UNIT ( ) SI_UNIT ( $, .RADIAN. ) );
#194 = CARTESIAN_POINT ( 'NONE',  ( -23.93688493731885458, 26.51727093175607308, -47.87376987463768785 ) ) ;
#195 = CARTESIAN_POINT ( 'NONE',  ( -23.42801362484811634, 26.17729418276826792, 1.694065894508600678E-18 ) ) ;
#196 = CARTESIAN_POINT ( 'NONE',  ( -0.5736179235705377577, 16.68319047246562548, 1.694065894508600678E-18 ) ) ;
#197 = CARTESIAN_POINT ( 'NONE',  ( -21.39957068512086735, 24.84882170940121071, -42.79914137024173471 ) ) ;
#198 = CARTESIAN_POINT ( 'NONE',  ( -13.25022997480534137, 20.05730275121825912, 1.694065894508600678E-18 ) ) ;
#199 = CARTESIAN_POINT ( 'NONE',  ( -24.89638565594131592, 27.16456268017720888, 1.694065894508600678E-18 ) ) ;
#200 = DIRECTION ( 'NONE',  ( -0.000000000000000000, -1.000000000000000000, -0.000000000000000000 ) ) ;
#201 = CARTESIAN_POINT ( 'NONE',  ( -13.25022997480534137, 20.05730275121825912, 1.694065894508600678E-18 ) ) ;
#202 = EDGE_LOOP ( 'NONE', ( #100, #304 ) ) ;
#203 = CARTESIAN_POINT ( 'NONE',  ( 24.70065513241528876, 27.03177441310746687, -3.026651890370010909E-15 ) ) ;
#204 = ADVANCED_FACE ( 'NONE', ( #113 ), #44, .T. ) ;
#205 = ADVANCED_BREP_SHAPE_REPRESENTATION ( 'Gyperbolic_mirror', ( #137, #109 ), #187 ) ;
#206 = DIRECTION ( 'NONE',  ( -0.000000000000000000, -1.000000000000000000, -0.000000000000000000 ) ) ;
#207 = CYLINDRICAL_SURFACE ( 'NONE', #289, 26.99999999999999645 ) ;
#208 = EDGE_LOOP ( 'NONE', ( #90, #135, #139 ) ) ;
#209 = CARTESIAN_POINT ( 'NONE',  ( 13.25022997480533782, 20.05730275121825912, -26.50045994961067564 ) ) ;
#210 = ORIENTED_EDGE ( 'NONE', *, *, #295, .F. ) ;
#211 = CARTESIAN_POINT ( 'NONE',  ( 18.26951501538705713, 22.87907953974722730, 36.53903003077409295 ) ) ;
#212 = CARTESIAN_POINT ( 'NONE',  ( 23.42801362484812344, 26.17729418276826792, 46.85602724969622557 ) ) ;
#213 = CARTESIAN_POINT ( 'NONE',  ( -7.402070620196836259, 17.64333063297809545, 1.814678484311852584E-15 ) ) ;
#214 = CARTESIAN_POINT ( 'NONE',  ( -23.42801362484810213, 26.17729418276826792, 46.85602724969622557 ) ) ;
#215 = AXIS2_PLACEMENT_3D ( 'NONE', #156, #48, #134 ) ;
#216 =( NAMED_UNIT ( * ) SI_UNIT ( $, .STERADIAN. ) SOLID_ANGLE_UNIT ( ) );
#217 = CARTESIAN_POINT ( 'NONE',  ( 24.33624991464068898, 26.78573120243097350, -2.982025122015985470E-15 ) ) ;
#218 = CARTESIAN_POINT ( 'NONE',  ( -24.89638565594131592, 27.16456268017720888, 1.694065894508600678E-18 ) ) ;
#219 = CARTESIAN_POINT ( 'NONE',  ( 23.93688493731885458, 26.51727093175607308, -2.933117017899111126E-15 ) ) ;
#220 = CARTESIAN_POINT ( 'NONE',  ( -4.932484610098605257E-12, 16.68319047246279396, 0.000000000000000000 ) ) ;
#221 = PRODUCT_DEFINITION_FORMATION_WITH_SPECIFIED_SOURCE ( 'ANY', '', #291, .NOT_KNOWN. ) ;
#222 = DIRECTION ( 'NONE',  ( 0.000000000000000000, 0.000000000000000000, -1.000000000000000000 ) ) ;
#223 = DIRECTION ( 'NONE',  ( -0.000000000000000000, -1.000000000000000000, -0.000000000000000000 ) ) ;
#224 = APPLICATION_CONTEXT ( 'automotive_design' ) ;
#225 = DIRECTION ( 'NONE',  ( 0.000000000000000000, -0.000000000000000000, 1.000000000000000000 ) ) ;
#226 = CARTESIAN_POINT ( 'NONE',  ( -13.25022997480534315, 20.05730275121825912, -26.50045994961067564 ) ) ;
#227 = CARTESIAN_POINT ( 'NONE',  ( 0.5736179235705376467, 16.68319047246562548, -1.147235847141075293 ) ) ;
#228 = SURFACE_STYLE_FILL_AREA ( #138 ) ;
#229 = ORIENTED_EDGE ( 'NONE', *, *, #238, .T. ) ;
#230 = CARTESIAN_POINT ( 'NONE',  ( 3.306546357697854128E-15, 27.23508511468253346, 27.00000000000000355 ) ) ;
#231 = PRODUCT_DEFINITION ( 'UNKNOWN', '', #221, #77 ) ;
#232 = EDGE_LOOP ( 'NONE', ( #49, #53, #178, #2 ) ) ;
#233 = CARTESIAN_POINT ( 'NONE',  ( 0.000000000000000000, 29.23508511468253346, 0.000000000000000000 ) ) ;
#234 = CIRCLE ( 'NONE', #73, 27.00000000000000000 ) ;
#235 = ORIENTED_EDGE ( 'NONE', *, *, #57, .F. ) ;
#236 = DIRECTION ( 'NONE',  ( 0.000000000000000000, 0.000000000000000000, -1.000000000000000000 ) ) ;
#237 = CARTESIAN_POINT ( 'NONE',  ( -21.39957068512085669, 24.84882170940121071, 42.79914137024173471 ) ) ;
#238 = EDGE_CURVE ( 'NONE', #155, #5, #266, .T. ) ;
#239 = CARTESIAN_POINT ( 'NONE',  ( -18.26951501538705358, 22.87907953974722730, 4.476434683008160917E-15 ) ) ;
#240 = PRODUCT_DEFINITION_SHAPE ( 'NONE', 'NONE',  #231 ) ;
#241 = CARTESIAN_POINT ( 'NONE',  ( -24.70065513241528876, 27.03177441310746687, 6.051609714845513217E-15 ) ) ;
#242 = CARTESIAN_POINT ( 'NONE',  ( -0.5736179235705374246, 16.68319047246562548, 1.147235847141075515 ) ) ;
#243 = CIRCLE ( 'NONE', #184, 24.99999999999993960 ) ;
#244 =( NAMED_UNIT ( * ) PLANE_ANGLE_UNIT ( ) SI_UNIT ( $, .RADIAN. ) );
#245 = VECTOR ( 'NONE', #101, 1000.000000000000000 ) ;
#246 = CARTESIAN_POINT ( 'NONE',  ( 24.33624991464068188, 26.78573120243097705, -48.67249982928136376 ) ) ;
#247 = DIRECTION ( 'NONE',  ( -0.000000000000000000, -1.000000000000000000, -0.000000000000000000 ) ) ;
#248 = ADVANCED_FACE ( 'NONE', ( #1, #180 ), #258, .T. ) ;
#249 = CARTESIAN_POINT ( 'NONE',  ( -7.402070620196836259, 17.64333063297809545, 1.694065894508600678E-18 ) ) ;
#250 = CARTESIAN_POINT ( 'NONE',  ( -22.86909176121336884, 25.80852029392270097, 1.694065894508600678E-18 ) ) ;
#251 = DIRECTION ( 'NONE',  ( 0.000000000000000000, 0.000000000000000000, -1.000000000000000000 ) ) ;
#252 = CARTESIAN_POINT ( 'NONE',  ( 0.000000000000000000, 29.23508511469208315, 0.000000000000000000 ) ) ;
#253 = PLANE ( 'NONE',  #122 ) ;
#254 = VERTEX_POINT ( 'NONE', #230 ) ;
#255 = CARTESIAN_POINT ( 'NONE',  ( -5.094073085446307325E-12, 16.68319047246279041, -1.018813770056314049E-11 ) ) ;
#256 = ADVANCED_FACE ( 'NONE', ( #114 ), #207, .T. ) ;
#257 = ORIENTED_EDGE ( 'NONE', *, *, #295, .T. ) ;
#258 = PLANE ( 'NONE',  #215 ) ;
#259 = ORIENTED_EDGE ( 'NONE', *, *, #45, .T. ) ;
#260 = CARTESIAN_POINT ( 'NONE',  ( -5.094069697314518308E-12, 16.68319047246279041, 1.694065894508600678E-18 ) ) ;
#261 = EDGE_LOOP ( 'NONE', ( #257, #117, #30, #235 ) ) ;
#262 = CARTESIAN_POINT ( 'NONE',  ( -22.86909176121335818, 25.80852029392269742, 45.73818352242673768 ) ) ;
#263 = ORIENTED_EDGE ( 'NONE', *, *, #166, .T. ) ;
#264 = CARTESIAN_POINT ( 'NONE',  ( 24.99999999999994671, 27.23508511466892656, 49.99999999999986500 ) ) ;
#265 = CARTESIAN_POINT ( 'NONE',  ( 21.39957068512087091, 24.84882170940121071, -2.622385640160589199E-15 ) ) ;
#266 = B_SPLINE_CURVE_WITH_KNOTS ( 'NONE', 3,
 ( #29, #111, #203, #303, #136, #91, #89, #116, #305, #177, #281, #66, #158, #131 ),
 .UNSPECIFIED., .F., .F.,
 ( 4, 1, 1, 1, 1, 1, 1, 1, 1, 1, 1, 4 ),
 ( 0.08320315828444178885, 0.08971561068935918204, 0.09622806309427656135, 0.1027405154991939545, 0.1092529679041113477, 0.1222778727139461202, 0.1353027775237808927, 0.1874023967631200105, 0.2916016352417982183, 0.3958008737204764538, 0.4739506856466572104, 0.5000004952664737212 ),
 .UNSPECIFIED. ) ;
#267 = CARTESIAN_POINT ( 'NONE',  ( -24.33624991464068898, 26.78573120243097350, 5.962356178137462340E-15 ) ) ;
#268 = CARTESIAN_POINT ( 'NONE',  ( 2.868153118922350142, 16.77044670973628726, -3.529415195497840105E-16 ) ) ;
#269 = CARTESIAN_POINT ( 'NONE',  ( -24.33624991464069254, 26.78573120243097705, -48.67249982928136376 ) ) ;
#270 =( LENGTH_UNIT ( ) NAMED_UNIT ( * ) SI_UNIT ( .MILLI., .METRE. ) );
#271 = UNCERTAINTY_MEASURE_WITH_UNIT (LENGTH_MEASURE( 1.000000000000000082E-05 ), #270, 'distance_accuracy_value', 'NONE');
#272 = CARTESIAN_POINT ( 'NONE',  ( 3.306546357697853339E-15, 29.23508511469208315, 26.99999999999999645 ) ) ;
#273 = LINE ( 'NONE', #18, #285 ) ;
#274 = CARTESIAN_POINT ( 'NONE',  ( -18.26951501538705358, 22.87907953974722730, 1.694065894508600678E-18 ) ) ;
#275 = CARTESIAN_POINT ( 'NONE',  ( 0.000000000000000000, 27.23508511468253346, -27.00000000000000000 ) ) ;
#276 = DIRECTION ( 'NONE',  ( 0.000000000000000000, 0.000000000000000000, -1.000000000000000000 ) ) ;
#277 = ADVANCED_FACE ( 'NONE', ( #35 ), #68, .F. ) ;
#278 = AXIS2_PLACEMENT_3D ( 'NONE', #130, #22, #67 ) ;
#279 = CARTESIAN_POINT ( 'NONE',  ( 24.99999999999993960, 27.23508511468253346, -3.063311063762884149E-15 ) ) ;
#280 = SURFACE_STYLE_USAGE ( .BOTH. , #284 ) ;
#281 = CARTESIAN_POINT ( 'NONE',  ( 7.402070620196836259, 17.64333063297809545, -9.081862751031805925E-16 ) ) ;
#282 = DIRECTION ( 'NONE',  ( 0.000000000000000000, 1.000000000000000000, 0.000000000000000000 ) ) ;
#283 = FACE_OUTER_BOUND ( 'NONE', #25, .T. ) ;
#284 = SURFACE_SIDE_STYLE ('',( #228 ) ) ;
#285 = VECTOR ( 'NONE', #36, 1000.000000000000000 ) ;
#286 = DIRECTION ( 'NONE',  ( -0.000000000000000000, -1.000000000000000000, -0.000000000000000000 ) ) ;
#287 = CARTESIAN_POINT ( 'NONE',  ( 5.094069697314518308E-12, 16.68319047246279041, -1.694065895132451565E-18 ) ) ;
#288 = PRODUCT_RELATED_PRODUCT_CATEGORY ( 'part', '', ( #291 ) ) ;
#289 = AXIS2_PLACEMENT_3D ( 'NONE', #92, #76, #236 ) ;
#290 = CARTESIAN_POINT ( 'NONE',  ( -24.99999999999993960, 27.23508511466892656, 6.124928061631259697E-15 ) ) ;
#291 = PRODUCT ( 'Gyperbolic_mirror', 'Gyperbolic_mirror', '', ( #151 ) ) ;
#292 = CARTESIAN_POINT ( 'NONE',  ( -23.93688493731884392, 26.51727093175607308, 47.87376987463770206 ) ) ;
#293 = CARTESIAN_POINT ( 'NONE',  ( 23.42801362484811634, 26.17729418276826792, -2.870798255499591080E-15 ) ) ;
#294 = APPLICATION_PROTOCOL_DEFINITION ( 'draft international standard', 'automotive_design', 1998, #9 ) ;
#295 = EDGE_CURVE ( 'NONE', #115, #43, #164, .T. ) ;
#296 = CARTESIAN_POINT ( 'NONE',  ( -24.33624991464068898, 26.78573120243097350, 1.694065894508600678E-18 ) ) ;
#297 = CARTESIAN_POINT ( 'NONE',  ( 24.99999999999993960, 27.23508511466892656, -3.063311063762884149E-15 ) ) ;
#298 = CARTESIAN_POINT ( 'NONE',  ( -23.42801362484811634, 26.17729418276826792, 1.694065894508600678E-18 ) ) ;
#299 = CARTESIAN_POINT ( 'NONE',  ( 23.42801362484811634, 26.17729418276826792, -2.870798255499591080E-15 ) ) ;
#300 = CARTESIAN_POINT ( 'NONE',  ( -4.932484610098605257E-12, 16.68319047246279396, 0.000000000000000000 ) ) ;
#301 = CARTESIAN_POINT ( 'NONE',  ( -21.39957068512087091, 24.84882170940121071, 1.694065894508600678E-18 ) ) ;
#302 = CARTESIAN_POINT ( 'NONE',  ( -2.868153118922350142, 16.77044670973629081, -5.736306237844699396 ) ) ;
#303 = CARTESIAN_POINT ( 'NONE',  ( 24.33624991464068898, 26.78573120243097350, -2.982025122015985470E-15 ) ) ;
#304 = ORIENTED_EDGE ( 'NONE', *, *, #4, .F. ) ;
#305 = CARTESIAN_POINT ( 'NONE',  ( 18.26951501538705358, 22.87907953974722730, -2.239064374451334759E-15 ) ) ;
ENDSEC;
END-ISO-10303-21;
